<svg width="19" height="19" viewBox="0 0 19 19" fill="none" xmlns="http://www.w3.org/2000/svg">
<path d="M17.876 13.6521H1.10634C0.81839 13.6521 0.584961 13.8857 0.584961 14.1735C0.584961 14.4616 0.81839 14.6949 1.10634 14.6949H17.876C18.164 14.6949 18.3974 14.4616 18.3974 14.1735C18.3974 13.8857 18.164 13.6521 17.876 13.6521Z" fill="#402495"/>
<path d="M17.876 8.75098H1.10634C0.81839 8.75098 0.584961 8.98473 0.584961 9.27252C0.584961 9.56046 0.81839 9.79389 1.10634 9.79389H17.876C18.164 9.79389 18.3974 9.56046 18.3974 9.27252C18.3974 8.98473 18.164 8.75098 17.876 8.75098Z" fill="#402495"/>
<path d="M17.876 3.84985H1.10634C0.81839 3.84985 0.584961 4.08344 0.584961 4.37123C0.584961 4.65918 0.81839 4.8926 1.10634 4.8926H17.876C18.164 4.8926 18.3974 4.65918 18.3974 4.37123C18.3974 4.08344 18.164 3.84985 17.876 3.84985Z" fill="#402495"/>
</svg>
